<?xml version="1.0" encoding="UTF-8"?>
<!DOCTYPE svg PUBLIC "-//W3C//DTD SVG 1.1//EN" "http://www.w3.org/Graphics/SVG/1.1/DTD/svg11.dtd">
<!-- Creator: CorelDRAW -->
<svg xmlns="http://www.w3.org/2000/svg" xml:space="preserve" width="6.82666in" height="6.82666in" style="shape-rendering:geometricPrecision; text-rendering:geometricPrecision; image-rendering:optimizeQuality; fill-rule:evenodd; clip-rule:evenodd"
viewBox="0 0 6.82666 6.82666"
 xmlns:xlink="http://www.w3.org/1999/xlink">
 <defs>
  <style type="text/css">
   <![CDATA[
    .fil1 {fill:none}
    .fil0 {fill:#212121;fill-rule:nonzero}
   ]]>
  </style>
 </defs>
 <g id="Layer_x0020_1">
  <metadata id="CorelCorpID_0Corel-Layer"/>
  <path class="fil0" d="M1.86097 1.97793c0.271094,-0.274445 0.627874,-0.413035 0.985551,-0.415228 0.357382,-0.00219685 0.715551,0.131882 0.989776,0.402756 0.274445,0.271091 0.413035,0.62787 0.415232,0.985547 0.00219291,0.357386 -0.131886,0.715555 -0.40276,0.989783 -0.271094,0.274445 -0.627878,0.413035 -0.985551,0.415228 -0.357386,0.00219685 -0.715555,-0.13189 -0.989776,-0.40276 -0.274445,-0.271091 -0.413035,-0.62787 -0.415232,-0.985547 -0.00219291,-0.357386 0.13189,-0.715559 0.40276,-0.98978zm0.986386 -0.202724c-0.302803,0.00185827 -0.604972,0.119307 -0.834717,0.35189 -0.229957,0.232803 -0.343783,0.536685 -0.341925,0.83978 0.0018622,0.302803 0.119311,0.604972 0.351894,0.834713 0.232803,0.229957 0.536681,0.343787 0.839776,0.341925 0.302803,-0.00185827 0.604972,-0.119307 0.834717,-0.35189 0.229957,-0.232807 0.343783,-0.536689 0.341925,-0.839783 -0.0018622,-0.302803 -0.119311,-0.604972 -0.351894,-0.834713 -0.232803,-0.229957 -0.536681,-0.343783 -0.839776,-0.341921z"/>
  <path class="fil0" d="M3.84442 3.78728c-0.0427992,-0.0402677 -0.11015,-0.0382165 -0.150417,0.00458268 -0.0402677,0.0427992 -0.0382165,0.11015 0.00458268,0.150417l1.56184 1.46855c0.0427992,0.0402677 0.11015,0.0382165 0.150417,-0.00458268 0.0402677,-0.0427992 0.0382165,-0.11015 -0.00458268,-0.150417l-1.56184 -1.46855z"/>
  <path class="fil0" d="M4.90667 1.17333c0.117807,0 0.224476,0.0477598 0.301693,0.124976 0.0772165,0.0772165 0.124976,0.183886 0.124976,0.301693 0,0.117807 -0.0477598,0.224476 -0.124976,0.301693 -0.0772165,0.0772126 -0.183886,0.124976 -0.301693,0.124976 -0.117807,0 -0.224476,-0.0477638 -0.301693,-0.124976 -0.0772126,-0.0772165 -0.124976,-0.183886 -0.124976,-0.301693 0,-0.117807 0.0477638,-0.224476 0.124976,-0.301693 0.0772165,-0.0772165 0.183886,-0.124976 0.301693,-0.124976zm0.150858 0.275811c-0.0385984,-0.0385984 -0.0919409,-0.0624724 -0.150858,-0.0624724 -0.0589173,0 -0.11226,0.023874 -0.150858,0.0624724 -0.0385945,0.0385984 -0.0624724,0.0919409 -0.0624724,0.150858 0,0.0589173 0.023878,0.11226 0.0624724,0.150858 0.0385984,0.0385945 0.0919409,0.0624724 0.150858,0.0624724 0.0589173,0 0.11226,-0.023878 0.150858,-0.0624724 0.0385984,-0.0385984 0.0624724,-0.0919409 0.0624724,-0.150858 0,-0.0589173 -0.023874,-0.11226 -0.0624724,-0.150858z"/>
  <path class="fil0" d="M2.98667 4.90666c0.117807,0 0.224476,0.0477638 0.301693,0.124976 0.0772126,0.0772165 0.124976,0.183886 0.124976,0.301693 0,0.117807 -0.0477638,0.224476 -0.124976,0.301693 -0.0772165,0.0772165 -0.183886,0.124976 -0.301693,0.124976 -0.117807,0 -0.224476,-0.0477598 -0.301693,-0.124976 -0.0772165,-0.0772165 -0.124976,-0.183886 -0.124976,-0.301693 0,-0.117807 0.0477598,-0.224476 0.124976,-0.301693 0.0772165,-0.0772126 0.183886,-0.124976 0.301693,-0.124976zm0.150858 0.275811c-0.0385984,-0.0385945 -0.0919409,-0.0624724 -0.150858,-0.0624724 -0.0589173,0 -0.11226,0.023878 -0.150858,0.0624724 -0.0385984,0.0385984 -0.0624724,0.0919409 -0.0624724,0.150858 0,0.0589173 0.023874,0.11226 0.0624724,0.150858 0.0385984,0.0385984 0.0919409,0.0624724 0.150858,0.0624724 0.0589173,0 0.11226,-0.023874 0.150858,-0.0624724 0.0385945,-0.0385984 0.0624724,-0.0919409 0.0624724,-0.150858 0,-0.0589173 -0.023878,-0.11226 -0.0624724,-0.150858z"/>
  <path class="fil0" d="M1.17333 4.15999c0.117807,0 0.224476,0.0477638 0.301693,0.124976 0.0772126,0.0772165 0.124976,0.183886 0.124976,0.301693 0,0.117807 -0.0477638,0.224476 -0.124976,0.301693 -0.0772165,0.0772165 -0.183886,0.124976 -0.301693,0.124976 -0.117807,0 -0.224476,-0.0477598 -0.301693,-0.124976 -0.0772165,-0.0772165 -0.124976,-0.183886 -0.124976,-0.301693 0,-0.117807 0.0477598,-0.224476 0.124976,-0.301693 0.0772165,-0.0772126 0.183886,-0.124976 0.301693,-0.124976zm0.150858 0.275811c-0.0385984,-0.0385945 -0.0919409,-0.0624724 -0.150858,-0.0624724 -0.0589173,0 -0.11226,0.023878 -0.150858,0.0624724 -0.0385984,0.0385984 -0.0624724,0.0919409 -0.0624724,0.150858 0,0.0589173 0.023874,0.11226 0.0624724,0.150858 0.0385984,0.0385984 0.0919409,0.0624724 0.150858,0.0624724 0.0589173,0 0.11226,-0.023874 0.150858,-0.0624724 0.0385945,-0.0385984 0.0624724,-0.0919409 0.0624724,-0.150858 0,-0.0589173 -0.023878,-0.11226 -0.0624724,-0.150858z"/>
  <path class="fil0" d="M1.38667 0.853327c0.117807,0 0.224476,0.0477598 0.301693,0.124976 0.0772126,0.0772165 0.124976,0.183886 0.124976,0.301693 0,0.117807 -0.0477638,0.224476 -0.124976,0.301693 -0.0772165,0.0772126 -0.183886,0.124976 -0.301693,0.124976 -0.117807,0 -0.224476,-0.0477638 -0.301693,-0.124976 -0.0772165,-0.0772165 -0.124976,-0.183886 -0.124976,-0.301693 0,-0.117807 0.0477598,-0.224476 0.124976,-0.301693 0.0772165,-0.0772165 0.183886,-0.124976 0.301693,-0.124976zm0.150858 0.275811c-0.0385984,-0.0385984 -0.0919409,-0.0624724 -0.150858,-0.0624724 -0.0589173,0 -0.11226,0.023874 -0.150858,0.0624724 -0.0385984,0.0385984 -0.0624724,0.0919409 -0.0624724,0.150858 0,0.0589173 0.023874,0.11226 0.0624724,0.150858 0.0385984,0.0385945 0.0919409,0.0624724 0.150858,0.0624724 0.0589173,0 0.11226,-0.023878 0.150858,-0.0624724 0.0385945,-0.0385984 0.0624724,-0.0919409 0.0624724,-0.150858 0,-0.0589173 -0.023878,-0.11226 -0.0624724,-0.150858z"/>
  <g id="_397663448">
   <path id="_397664456" class="fil0" d="M3.78063 2.83297l0 0.200709 0 0.0533346 -0.0533346 0 -0.186138 0c-0.00918898,0.0422874 -0.022122,0.0832874 -0.0384252,0.12263 -0.0165551,0.0399449 -0.0366063,0.0780906 -0.0597638,0.114055l0.131724 0.131724 0.0377087 0.0377087 -0.0377087 0.0377087 -0.141925 0.141921 -0.0377087 0.0377047 -0.0377087 -0.0377047 -0.131756 -0.131756c-0.0360433,0.0232244 -0.0741693,0.0432835 -0.113992,0.0597874 -0.0393543,0.016311 -0.0803622,0.0292441 -0.122657,0.0384331l0 0.186138 0 0.0533346 -0.0533346 0 -0.200709 0 -0.0533346 0 0 -0.0533346 0 -0.186134c-0.0422835,-0.00918898 -0.0832835,-0.0221181 -0.12263,-0.0384252 -0.0399409,-0.0165551 -0.0780906,-0.0366102 -0.114055,-0.0597677l-0.131724 0.131724 -0.0377087 0.0377087 -0.0377087 -0.0377087 -0.141921 -0.141921 -0.0377087 -0.0377087 0.0377087 -0.0377087 0.131823 -0.131823c-0.0233346,-0.0361496 -0.0434134,-0.074252 -0.0598543,-0.113925 -0.016311,-0.0393583 -0.0292402,-0.0803661 -0.0384331,-0.122661l-0.186142 0 -0.0533346 0 0 -0.0533346 0 -0.200709 0 -0.0533346 0.0533346 0 0.186138 0c0.00918898,-0.0422874 0.022122,-0.0832874 0.0384252,-0.12263 0.0165551,-0.0399409 0.0366024,-0.0780906 0.0597598,-0.114055l-0.13172 -0.13172 -0.0377087 -0.0377087 0.0377087 -0.0377087 0.141925 -0.141925 0.0377087 -0.0377087 0.0377087 0.0377087 0.131756 0.131756c0.0360433,-0.0232244 0.0741693,-0.0432835 0.113992,-0.0597874 0.0393543,-0.016311 0.0803661,-0.0292441 0.122661,-0.0384331l0 -0.186138 0 -0.0533346 0.0533346 0 0.200709 0 0.0533346 0 0 0.0533346 0 0.186134c0.0422874,0.00918898 0.0832835,0.022122 0.122626,0.0384252 0.0399409,0.0165551 0.0780906,0.0366024 0.114059,0.0597638l0.13172 -0.13172 0.0377087 -0.0377087 0.0377087 0.0377087 0.141925 0.141925 0.0377087 0.0377087 -0.0377087 0.0377087 -0.131827 0.131827c0.0233307,0.0361457 0.0434134,0.074252 0.0598543,0.113921 0.016311,0.0393543 0.0292402,0.0803661 0.0384331,0.122657l0.186142 0 0.0533346 0 0 0.0533346zm-0.106669 0.147374l0 -0.0940394 -0.177169 0 -0.045874 0 -0.00683465 -0.0454173c-0.00753543,-0.0500787 -0.0210236,-0.0980276 -0.0396929,-0.143075 -0.0194094,-0.0468346 -0.044063,-0.090374 -0.0731535,-0.129795l-0.0272402 -0.0369213 0.0322402 -0.0322441 0.125331 -0.125331 -0.0665079 -0.0665079 -0.125331 0.125331 -0.0323583 0.0323622 -0.0368071 -0.0271535c-0.0398583,-0.0294055 -0.0834134,-0.0541417 -0.129827,-0.073378 -0.0450354,-0.0186654 -0.0929685,-0.0321457 -0.143043,-0.0396772l-0.0454173 -0.00683071 0 -0.045878 0 -0.177169 -0.0940394 0 0 0.177169 0 0.045878 -0.0454173 0.00683071c-0.0500787,0.00753543 -0.0980315,0.0210197 -0.143079,0.039689 -0.0465197,0.0192795 -0.0899921,0.043937 -0.129587,0.0731575l-0.0370394 0.0273346 -0.0323346 -0.0323346 -0.125331 -0.125331 -0.0665079 0.0665079 0.125331 0.125331 0.0323622 0.0323622 -0.0271535 0.0368031c-0.0294055,0.0398583 -0.0541378,0.0834094 -0.073374,0.129823 -0.0186654,0.0450394 -0.0321457,0.0929764 -0.0396811,0.143047l-0.00683465 0.0454173 -0.045874 0 -0.177169 0 0 0.0940394 0.177169 0 0.045874 0 0.00683465 0.0454173c0.00753543,0.0500787 0.0210236,0.0980276 0.0396929,0.143079 0.0194094,0.0468346 0.0440669,0.0903701 0.0731575,0.129795l0.0272441 0.0369252 -0.0322441 0.0322402 -0.125331 0.125331 0.0665039 0.0665039 0.125331 -0.125331 0.0323622 -0.0323583 0.0368031 0.0271496c0.0398622,0.0294055 0.0834134,0.0541417 0.129827,0.073378 0.0450354,0.0186654 0.0929724,0.0321457 0.143047,0.0396772l0.0454173 0.00683071 0 0.045878 0 0.177169 0.0940394 0 0 -0.177169 0 -0.045878 0.0454173 -0.00683071c0.0500787,-0.00753543 0.0980276,-0.0210197 0.143075,-0.039689 0.0465197,-0.0192795 0.0899921,-0.043937 0.129587,-0.0731575l0.0370433 -0.0273307 0.0323307 0.0323307 0.125331 0.125331 0.0665079 -0.0665039 -0.125335 -0.125331 -0.0323583 -0.0323583 0.0271496 -0.0368071c0.0294055,-0.0398622 0.0541417,-0.0834094 0.073378,-0.129827 0.0186654,-0.0450394 0.0321457,-0.0929764 0.0396811,-0.143047l0.00683465 -0.0454173 0.045874 0 0.177169 0z"/>
   <path id="_397663520" class="fil0" d="M2.83526 2.47857c0.125567,0 0.23926,0.0509016 0.321551,0.133201 0.0822992,0.0822913 0.133201,0.195984 0.133201,0.321555 0,0.125567 -0.0509055,0.239256 -0.133197,0.321555 -0.0822992,0.0822913 -0.195988,0.133197 -0.321555,0.133197 -0.125571,0 -0.239264,-0.0509055 -0.321555,-0.133197 -0.0822992,-0.0822913 -0.133201,-0.195984 -0.133201,-0.321555 0,-0.125571 0.0509016,-0.239264 0.133201,-0.321555 0.0822913,-0.0822992 0.195984,-0.133201 0.321555,-0.133201zm0.246134 0.208618c-0.0629843,-0.0629882 -0.150012,-0.101949 -0.246134,-0.101949 -0.096126,0 -0.183154,0.0389606 -0.246138,0.101949 -0.0629882,0.0629843 -0.101949,0.150012 -0.101949,0.246138 0,0.096126 0.0389606,0.183154 0.101949,0.246138 0.0629843,0.0629843 0.150012,0.101945 0.246138,0.101945 0.096122,0 0.18315,-0.0389606 0.246138,-0.101945 0.0629843,-0.0629882 0.101945,-0.150016 0.101945,-0.246138 0,-0.096126 -0.0389606,-0.183154 -0.101949,-0.246138z"/>
  </g>
  <polygon class="fil0" points="4.66604,1.82205 3.93092,2.24647 3.87759,2.15439 4.61271,1.72997 "/>
  <polygon class="fil0" points="1.95937,3.87583 1.46243,4.42237 1.38368,4.3507 1.88063,3.80416 "/>
  <polygon class="fil0" points="2.93271,4.25916 3.03937,5.00582 2.93396,5.02082 2.82729,4.27416 "/>
  <polygon class="fil0" points="1.61094,1.50558 2.02865,1.96662 1.9499,2.03787 1.53219,1.57683 "/>
 </g>
 <rect class="fil1" width="6.82666" height="6.82666"/>
</svg>
